<?xml version="1.0" standalone="no"?>
<!DOCTYPE svg PUBLIC "-//W3C//DTD SVG 20010904//EN"
 "http://www.w3.org/TR/2001/REC-SVG-20010904/DTD/svg10.dtd">
<svg version="1.0" xmlns="http://www.w3.org/2000/svg"
 width="2000.000000pt" height="2000.000000pt" viewBox="0 0 2000.000000 2000.000000"
 preserveAspectRatio="xMidYMid meet">
<metadata>
Created by potrace 1.13, written by Peter Selinger 2001-2015
</metadata>
<g transform="translate(0.000000,2000.000000) scale(0.100000,-0.100000)"
fill="#000000" stroke="none">
<path d="M9681 18924 c-1025 -124 -1887 -846 -2191 -1835 -67 -217 -110 -481
-110 -669 l0 -92 -92 84 c-332 299 -717 503 -1148 608 -266 64 -627 87 -894
56 -625 -73 -1166 -337 -1597 -782 -128 -133 -208 -232 -312 -389 -88 -134
-217 -388 -272 -539 -48 -130 -109 -372 -130 -516 -23 -156 -31 -456 -16 -616
53 -568 285 -1097 666 -1519 l83 -92 -121 -6 c-669 -34 -1277 -310 -1748 -793
-206 -212 -349 -414 -474 -669 -120 -247 -199 -495 -242 -767 -17 -107 -18
-321 -18 -4358 0 -4101 1 -4248 19 -4330 74 -339 244 -540 543 -640 196 -65
-516 -60 8373 -60 8888 0 8177 -5 8373 60 257 86 428 262 510 525 55 179 52
-107 52 4435 0 3997 -1 4211 -18 4325 -116 776 -517 1415 -1153 1840 -385 258
-835 406 -1306 431 l-127 7 72 81 c366 412 575 857 659 1401 25 168 30 511 9
665 -85 626 -325 1123 -746 1546 -248 250 -490 417 -805 556 -199 88 -444 159
-670 194 -161 24 -496 30 -663 10 -566 -66 -1090 -301 -1479 -666 l-85 -79 -7
125 c-35 635 -290 1223 -726 1678 -341 356 -781 612 -1255 730 -121 30 -247
52 -375 66 -133 14 -443 11 -579 -6z m596 -1213 c571 -117 1016 -570 1119
-1141 24 -128 24 -362 0 -490 -45 -249 -169 -506 -335 -694 l-61 -69 0 -1445
c0 -795 2 -1443 4 -1441 3 2 464 462 1024 1022 l1020 1019 7 86 c28 350 155
642 386 886 202 214 455 354 752 418 146 31 408 31 554 0 443 -95 805 -377
998 -777 155 -324 181 -711 70 -1051 -183 -558 -666 -931 -1270 -979 l-80 -6
-1017 -1017 c-560 -559 -1018 -1020 -1018 -1024 0 -5 648 -8 1441 -8 l1441 0
61 55 c180 163 418 283 670 337 135 28 398 31 531 4 655 -129 1117 -657 1159
-1323 l4 -73 -7740 0 -7740 0 7 93 c31 413 238 796 565 1043 92 69 305 180
411 214 283 90 596 89 880 -2 168 -54 375 -174 507 -293 l61 -55 1441 0 c793
0 1441 3 1441 8 0 4 -458 464 -1017 1023 l-1018 1017 -120 11 c-353 34 -645
169 -885 411 -204 204 -330 437 -392 723 -31 146 -31 408 0 554 125 579 570
1015 1146 1120 124 23 369 22 494 -1 442 -81 821 -365 1017 -761 89 -179 136
-351 151 -543 l7 -93 1014 -1019 c559 -561 1019 -1020 1024 -1020 5 0 9 608 9
1440 l0 1440 -78 92 c-164 196 -257 387 -314 639 -33 148 -32 416 1 569 57
264 179 496 364 687 235 244 526 391 858 433 112 14 329 4 446 -19z m-4632
-8386 c480 -73 907 -284 1251 -617 202 -196 345 -390 464 -633 136 -277 205
-537 234 -892 l6 -63 -633 0 -633 0 -16 104 c-59 368 -323 684 -672 802 -318
109 -686 50 -944 -150 -80 -62 -192 -180 -237 -250 -55 -87 -110 -209 -135
-301 -31 -114 -39 -331 -15 -446 55 -274 208 -506 430 -654 178 -119 321 -161
590 -176 306 -16 468 -44 700 -120 830 -272 1428 -1003 1546 -1889 16 -122 16
-428 0 -550 -55 -409 -201 -772 -443 -1099 -84 -113 -270 -307 -383 -398 -778
-628 -1860 -684 -2690 -139 -349 229 -617 534 -800 911 -135 276 -204 535
-230 863 l-6 82 634 0 634 0 7 -64 c14 -142 78 -314 163 -443 85 -130 251
-277 393 -348 248 -125 560 -139 825 -36 131 50 238 123 350 236 208 210 305
458 292 750 -7 151 -34 260 -96 390 -140 292 -388 489 -711 565 -25 6 -131 15
-236 20 -405 20 -685 89 -999 248 -450 228 -798 582 -1020 1037 -110 226 -172
426 -212 685 -24 159 -24 472 1 635 113 752 563 1378 1236 1719 251 127 521
206 805 236 122 12 427 4 550 -15z m3804 -2262 c261 -1259 477 -2299 481
-2313 6 -22 12 -25 55 -25 l49 0 472 2280 c260 1254 475 2295 479 2313 l6 32
629 0 c537 0 630 -2 630 -14 0 -8 -363 -1766 -806 -3908 -443 -2141 -808
-3905 -811 -3920 l-5 -28 -644 0 -644 0 -5 23 c-7 29 -1625 7840 -1625 7844 0
2 285 3 633 3 l632 0 474 -2287z m5541 2262 c468 -72 900 -285 1239 -610 425
-408 666 -931 704 -1527 l5 -68 -633 0 c-700 0 -645 -6 -645 65 0 101 -85 330
-169 453 -261 385 -756 541 -1201 378 -170 -63 -356 -208 -470 -369 -56 -78
-124 -224 -152 -327 l-23 -85 0 -1820 0 -1820 23 -85 c81 -296 280 -535 553
-665 158 -74 235 -90 434 -89 141 0 183 4 247 22 186 51 333 135 464 266 134
135 221 284 271 471 l27 100 4 583 3 582 -485 0 -486 0 0 635 0 635 1120 0
1121 0 -4 -1247 c-3 -1093 -5 -1260 -20 -1348 -83 -516 -281 -921 -622 -1274
-662 -687 -1665 -890 -2542 -515 -644 275 -1137 851 -1309 1530 -74 292 -69
144 -69 2234 0 2078 -4 1928 65 2203 79 308 235 620 441 874 212 263 527 504
839 643 237 105 442 158 760 194 75 9 410 -4 510 -19z"/>
</g>
</svg>
